<svg xmlns="http://www.w3.org/2000/svg" xmlns:xlink="http://www.w3.org/1999/xlink" fill="none" version="1.1" width="16" height="16" viewBox="0 0 48 48">
  <path d="M30,13L30,11Q30,8.5147181,28.242641,6.7573586Q26.485283,5,24,5Q21.514717,5,19.757359,6.7573586Q18,8.5147181,18,11L18,13L10,13Q7.5147181,13,5.7573242,14.7573242Q3.999964952469,16.514684000000003,4,19Q4,21.485283,5.7573242,23.242676Q7.0815096,24.566862,8.819091799999999,24.893066L6.1320801,35.530761999999996Q5.4140117,38.373581,7.2155762,40.686523Q9.0172071,42.999813,11.9494629,43L36.050537,43Q38.982628,43,40.78418,40.686523Q42.585815,38.373226,41.867676,35.530761999999996L39.180908,24.893066Q40.918446,24.566683,42.242676,23.242676Q44.000034,21.485317,44,19Q44,16.514716999999997,42.242676,14.7573242Q40.485317,12.9999657,38,13L30,13ZM26,15C26,16.104568999999998,26.89543,17,28,17L38,17Q40,17,40,19Q40,21,38,21L10,21Q8,21,8,19Q8,17,10,17L20,17C21.10457,17,22,16.104568999999998,22,15L22,11Q22,9,24,9Q26,9,26,11L26,15ZM10.0102539,36.510254L12.9177246,25L35.082274999999996,25L37.989502,36.510254Q38.228859,37.457863,37.628418,38.229004Q37.02787,39.000103,36.050537,39L21,39L21,35C21,33.895432,20.104568,33,19,33C17.895431000000002,33,17,33.895432,17,35L17,39L11.9494629,39Q10.9720984,39,10.371582,38.229004Q9.7710376,37.457905,10.0102539,36.510254Z"
        fill-rule="evenodd" fill="#FFFFFF" fill-opacity="1"/>
</svg>