<svg xmlns="http://www.w3.org/2000/svg" width="16" height="16" viewBox="0 0 16 16">
  <!-- Run triangle (green) -->
  <polygon points="3,2 3,14 13,8" fill="#59A869"/>
  <!-- Fire overlay (bottom-right) -->
  <g transform="translate(7, 7) scale(0.6)">
    <path d="M8 16c3.314 0 6-2 6-5.5 0-1.5-.5-4-2.5-6 .25 1.5-1.25 2-1.25 2C11 4 9 .5 6 0c.357 2 .5 4-2 6-1.25 1-2 2.729-2 4.5C2 14 4.686 16 8 16z"
          fill="#FF6B35"/>
    <path d="M8 16c1.657 0 3-1 3-2.75 0-.75-.25-2-1.25-3 .125.75-.625 1-.625 1C9.5 9 8.5 7.25 7 7c.178 1 .25 2-1 3-.625.5-1 1.365-1 2.25C5 14 6.343 16 8 16z"
          fill="#FFD43B"/>
  </g>
</svg>
